<?xml version="1.0" encoding="UTF-8"?>
<svg id="Livello_2" data-name="Livello 2" xmlns="http://www.w3.org/2000/svg" viewBox="0 0 23.13 32.82">
  <defs>
    <style>
      .cls-1 {
        fill: #fff;
      }
    </style>
  </defs>
  <g id="Livello_1-2" data-name="Livello 1">
    <path class="cls-1" d="M16.19,19.43c-2.54,0-5.48.16-8.22.16-1.32,0-2.01-.42-2.01-1.32,0-.42.2-.69.54-1.27l.15-.25c.2-.34.59-.51.98-.42,1.01.24,2.12.35,3.33.35,6.26,0,9.64-2.28,9.64-6.67,0-3.39-2.15-4.66-4.94-5.24v-.05c1.57.05,2.69.11,3.82.11,1.65,0,2.98-1.34,2.98-2.98v-.95c0-.49-.4-.89-.89-.89h-10.36C4.99,0,1.32,3.07,1.32,8.52c0,3.17,1.19,5.42,3.59,6.77.64.36.62,1.27-.04,1.58h0s-.04.02-.06.02c-1.89.69-2.86,2.01-2.86,3.27,0,1.06.36,1.88,1.09,2.44.55.42.43,1.26-.2,1.53-1.87.79-2.85,2.09-2.85,3.61,0,3.18,2.49,5.08,11.45,5.08s11.69-2.54,11.69-7.2c0-3.86-2.05-6.19-6.95-6.19ZM11.87,7.9l3.68-2.09c.16-.09.35-.12.53-.07.18.05.33.17.43.33.19.34.07.77-.26.96l-2.62,1.49,2.63,1.55c.16.1.28.25.32.43.05.18.02.37-.08.53-.13.21-.36.35-.61.35-.13,0-.25-.03-.36-.1l-3.67-2.17c-.22-.13-.35-.36-.35-.61,0-.25.14-.48.36-.61ZM4.9,8.61c0-1.95.87-2.89,2.35-2.89s2.32.81,2.32,2.86-.9,2.81-2.32,2.81-2.35-.78-2.35-2.78ZM11.35,28.58c-5.87,0-7.24-.64-7.24-2.59,0-1.22,1.08-2.43,3.47-2.43h8.8c1.91,0,2.54.95,2.54,2.06,0,2.01-1.27,2.96-7.58,2.96Z"/>
  </g>
</svg>